<mxfile host="app.diagrams.net" modified="2021-11-04T03:37:01.359Z" agent="5.0 (Macintosh; Intel Mac OS X 10_15_7) AppleWebKit/537.36 (KHTML, like Gecko) Chrome/93.0.4577.63 Safari/537.36" etag="xHa66AxftYvi23TkoRKn" version="15.6.8" type="github">
  <diagram id="EioYZbHYscT3MzkV84WL" name="Page-1">
    <mxGraphModel dx="946" dy="613" grid="1" gridSize="10" guides="1" tooltips="1" connect="1" arrows="1" fold="1" page="1" pageScale="1" pageWidth="827" pageHeight="1169" math="0" shadow="0">
      <root>
        <mxCell id="0" />
        <mxCell id="1" parent="0" />
        <mxCell id="t8I1GnkwRlT8fT6AS5P3-1" value="" style="rounded=0;whiteSpace=wrap;html=1;" parent="1" vertex="1">
          <mxGeometry x="160" y="60" width="20" height="520" as="geometry" />
        </mxCell>
        <mxCell id="t8I1GnkwRlT8fT6AS5P3-5" value="" style="endArrow=classic;html=1;exitX=1.021;exitY=0.282;exitDx=0;exitDy=0;exitPerimeter=0;" parent="1" source="t8I1GnkwRlT8fT6AS5P3-1" edge="1">
          <mxGeometry width="50" height="50" relative="1" as="geometry">
            <mxPoint x="250" y="230" as="sourcePoint" />
            <mxPoint x="437" y="250" as="targetPoint" />
          </mxGeometry>
        </mxCell>
        <mxCell id="t8I1GnkwRlT8fT6AS5P3-6" value="" style="rounded=0;whiteSpace=wrap;html=1;" parent="1" vertex="1">
          <mxGeometry x="440" y="60" width="20" height="520" as="geometry" />
        </mxCell>
        <mxCell id="t8I1GnkwRlT8fT6AS5P3-11" value="&lt;div&gt;&lt;span&gt;GET / HTTP1.1&lt;/span&gt;&lt;/div&gt;&lt;div&gt;&lt;span&gt;Connect: Upgrade&lt;/span&gt;&lt;/div&gt;&lt;div&gt;&lt;span&gt;Upgrade: h2&lt;/span&gt;&lt;/div&gt;" style="text;html=1;align=left;verticalAlign=middle;whiteSpace=wrap;rounded=0;fillColor=#f5f5f5;strokeColor=#666666;fontColor=#333333;" parent="1" vertex="1">
          <mxGeometry x="210" y="140" width="190" height="50" as="geometry" />
        </mxCell>
        <mxCell id="t8I1GnkwRlT8fT6AS5P3-12" value="" style="endArrow=classic;html=1;exitX=-0.083;exitY=0.439;exitDx=0;exitDy=0;entryX=1.124;entryY=0.579;entryDx=0;entryDy=0;entryPerimeter=0;exitPerimeter=0;" parent="1" source="t8I1GnkwRlT8fT6AS5P3-6" target="t8I1GnkwRlT8fT6AS5P3-1" edge="1">
          <mxGeometry width="50" height="50" relative="1" as="geometry">
            <mxPoint x="438" y="180" as="sourcePoint" />
            <mxPoint x="183" y="260" as="targetPoint" />
          </mxGeometry>
        </mxCell>
        <mxCell id="t8I1GnkwRlT8fT6AS5P3-13" value="&lt;div style=&quot;text-align: left ; font-size: 11px&quot;&gt;&lt;font style=&quot;font-size: 11px&quot;&gt;HTTP1.1 101 Switching Protocols&lt;/font&gt;&lt;/div&gt;&lt;div style=&quot;text-align: left ; font-size: 11px&quot;&gt;&lt;font style=&quot;font-size: 11px&quot;&gt;Upgrade: h2&lt;/font&gt;&lt;/div&gt;" style="text;html=1;align=center;verticalAlign=middle;whiteSpace=wrap;rounded=0;fillColor=#f5f5f5;strokeColor=#666666;fontColor=#333333;" parent="1" vertex="1">
          <mxGeometry x="210" y="250" width="190" height="30" as="geometry" />
        </mxCell>
        <mxCell id="t8I1GnkwRlT8fT6AS5P3-15" value="" style="endArrow=classic;html=1;entryX=0.055;entryY=0.789;entryDx=0;entryDy=0;entryPerimeter=0;dashed=1;" parent="1" target="t8I1GnkwRlT8fT6AS5P3-6" edge="1">
          <mxGeometry width="50" height="50" relative="1" as="geometry">
            <mxPoint x="186" y="410" as="sourcePoint" />
            <mxPoint x="440" y="430.96000000000004" as="targetPoint" />
          </mxGeometry>
        </mxCell>
        <mxCell id="t8I1GnkwRlT8fT6AS5P3-16" value="Client" style="text;html=1;align=center;verticalAlign=middle;resizable=0;points=[];autosize=1;strokeColor=none;fillColor=none;" parent="1" vertex="1">
          <mxGeometry x="145" y="30" width="50" height="20" as="geometry" />
        </mxCell>
        <mxCell id="t8I1GnkwRlT8fT6AS5P3-17" value="Server" style="text;html=1;align=center;verticalAlign=middle;resizable=0;points=[];autosize=1;strokeColor=none;fillColor=none;" parent="1" vertex="1">
          <mxGeometry x="420" y="30" width="50" height="20" as="geometry" />
        </mxCell>
        <mxCell id="t8I1GnkwRlT8fT6AS5P3-18" value="&lt;div style=&quot;text-align: left ; font-size: 11px&quot;&gt;HTTP2 Connect Begin&lt;/div&gt;" style="text;html=1;align=center;verticalAlign=middle;whiteSpace=wrap;rounded=0;fillColor=#f5f5f5;strokeColor=#666666;fontColor=#333333;" parent="1" vertex="1">
          <mxGeometry x="210" y="370" width="190" height="30" as="geometry" />
        </mxCell>
        <mxCell id="t8I1GnkwRlT8fT6AS5P3-19" value="" style="rounded=0;whiteSpace=wrap;html=1;" parent="1" vertex="1">
          <mxGeometry x="517" y="60" width="20" height="520" as="geometry" />
        </mxCell>
        <mxCell id="t8I1GnkwRlT8fT6AS5P3-20" value="" style="endArrow=classic;html=1;entryX=-0.036;entryY=0.632;entryDx=0;entryDy=0;entryPerimeter=0;" parent="1" target="t8I1GnkwRlT8fT6AS5P3-21" edge="1">
          <mxGeometry width="50" height="50" relative="1" as="geometry">
            <mxPoint x="541" y="350" as="sourcePoint" />
            <mxPoint x="794" y="380" as="targetPoint" />
          </mxGeometry>
        </mxCell>
        <mxCell id="t8I1GnkwRlT8fT6AS5P3-21" value="" style="rounded=0;whiteSpace=wrap;html=1;" parent="1" vertex="1">
          <mxGeometry x="797" y="60" width="20" height="520" as="geometry" />
        </mxCell>
        <mxCell id="t8I1GnkwRlT8fT6AS5P3-22" value="&lt;div&gt;&lt;span&gt;GET / HTTP1.1&lt;/span&gt;&lt;/div&gt;&lt;div&gt;&lt;span&gt;Connect: Upgrade&lt;/span&gt;&lt;/div&gt;&lt;div&gt;&lt;span&gt;Upgrade: h2&lt;/span&gt;&lt;/div&gt;" style="text;html=1;align=left;verticalAlign=middle;whiteSpace=wrap;rounded=0;fillColor=#f5f5f5;strokeColor=#666666;fontColor=#333333;" parent="1" vertex="1">
          <mxGeometry x="580" y="295" width="190" height="50" as="geometry" />
        </mxCell>
        <mxCell id="t8I1GnkwRlT8fT6AS5P3-23" value="" style="endArrow=classic;html=1;entryX=1.033;entryY=0.811;entryDx=0;entryDy=0;entryPerimeter=0;" parent="1" target="t8I1GnkwRlT8fT6AS5P3-19" edge="1">
          <mxGeometry width="50" height="50" relative="1" as="geometry">
            <mxPoint x="795" y="430" as="sourcePoint" />
            <mxPoint x="539" y="470" as="targetPoint" />
          </mxGeometry>
        </mxCell>
        <mxCell id="t8I1GnkwRlT8fT6AS5P3-24" value="&lt;div style=&quot;text-align: left ; font-size: 11px&quot;&gt;&lt;font style=&quot;font-size: 11px&quot;&gt;HTTP1.1 101 Switching Protocols&lt;/font&gt;&lt;/div&gt;&lt;div style=&quot;text-align: left ; font-size: 11px&quot;&gt;&lt;font style=&quot;font-size: 11px&quot;&gt;Upgrade: h2&lt;/font&gt;&lt;/div&gt;" style="text;html=1;align=center;verticalAlign=middle;whiteSpace=wrap;rounded=0;fillColor=#f5f5f5;strokeColor=#666666;fontColor=#333333;" parent="1" vertex="1">
          <mxGeometry x="580" y="400" width="190" height="30" as="geometry" />
        </mxCell>
        <mxCell id="t8I1GnkwRlT8fT6AS5P3-25" value="" style="endArrow=classic;html=1;entryX=-0.036;entryY=0.961;entryDx=0;entryDy=0;entryPerimeter=0;dashed=1;exitX=1.033;exitY=0.868;exitDx=0;exitDy=0;exitPerimeter=0;" parent="1" source="t8I1GnkwRlT8fT6AS5P3-19" target="t8I1GnkwRlT8fT6AS5P3-21" edge="1">
          <mxGeometry width="50" height="50" relative="1" as="geometry">
            <mxPoint x="543" y="410" as="sourcePoint" />
            <mxPoint x="797" y="430.96000000000004" as="targetPoint" />
          </mxGeometry>
        </mxCell>
        <mxCell id="t8I1GnkwRlT8fT6AS5P3-26" value="Client" style="text;html=1;align=center;verticalAlign=middle;resizable=0;points=[];autosize=1;strokeColor=none;fillColor=none;" parent="1" vertex="1">
          <mxGeometry x="502" y="30" width="50" height="20" as="geometry" />
        </mxCell>
        <mxCell id="t8I1GnkwRlT8fT6AS5P3-27" value="Server" style="text;html=1;align=center;verticalAlign=middle;resizable=0;points=[];autosize=1;strokeColor=none;fillColor=none;" parent="1" vertex="1">
          <mxGeometry x="777" y="30" width="50" height="20" as="geometry" />
        </mxCell>
        <mxCell id="t8I1GnkwRlT8fT6AS5P3-28" value="&lt;div style=&quot;text-align: left ; font-size: 11px&quot;&gt;TLS Connect Begin&lt;/div&gt;" style="text;html=1;align=center;verticalAlign=middle;whiteSpace=wrap;rounded=0;fillColor=#f5f5f5;strokeColor=#666666;fontColor=#333333;" parent="1" vertex="1">
          <mxGeometry x="580" y="480" width="190" height="30" as="geometry" />
        </mxCell>
        <mxCell id="t8I1GnkwRlT8fT6AS5P3-29" value="" style="endArrow=classic;html=1;entryX=-0.036;entryY=0.241;entryDx=0;entryDy=0;entryPerimeter=0;" parent="1" target="t8I1GnkwRlT8fT6AS5P3-21" edge="1">
          <mxGeometry width="50" height="50" relative="1" as="geometry">
            <mxPoint x="542" y="150" as="sourcePoint" />
            <mxPoint x="794" y="150" as="targetPoint" />
          </mxGeometry>
        </mxCell>
        <mxCell id="t8I1GnkwRlT8fT6AS5P3-30" value="&lt;div&gt;&lt;span&gt;GET / HTTP1.1&lt;/span&gt;&lt;/div&gt;&lt;div&gt;&lt;span&gt;Connect: Upgrade&lt;/span&gt;&lt;/div&gt;" style="text;html=1;align=left;verticalAlign=middle;whiteSpace=wrap;rounded=0;fillColor=#f5f5f5;strokeColor=#666666;fontColor=#333333;" parent="1" vertex="1">
          <mxGeometry x="580" y="90" width="190" height="50" as="geometry" />
        </mxCell>
        <mxCell id="t8I1GnkwRlT8fT6AS5P3-31" value="" style="endArrow=classic;html=1;entryX=0.998;entryY=0.436;entryDx=0;entryDy=0;entryPerimeter=0;exitX=-0.105;exitY=0.342;exitDx=0;exitDy=0;exitPerimeter=0;" parent="1" source="t8I1GnkwRlT8fT6AS5P3-21" target="t8I1GnkwRlT8fT6AS5P3-19" edge="1">
          <mxGeometry width="50" height="50" relative="1" as="geometry">
            <mxPoint x="797" y="190" as="sourcePoint" />
            <mxPoint x="539.6600000000001" y="241.72000000000003" as="targetPoint" />
          </mxGeometry>
        </mxCell>
        <mxCell id="t8I1GnkwRlT8fT6AS5P3-32" value="&lt;div style=&quot;text-align: left ; font-size: 11px&quot;&gt;&lt;font style=&quot;font-size: 11px&quot;&gt;HTTP1.1 426 Upgrade Required&lt;/font&gt;&lt;/div&gt;&lt;div style=&quot;text-align: left ; font-size: 11px&quot;&gt;&lt;font style=&quot;font-size: 11px&quot;&gt;Upgrade: h2, websocket&lt;/font&gt;&lt;/div&gt;" style="text;html=1;align=center;verticalAlign=middle;whiteSpace=wrap;rounded=0;fillColor=#f5f5f5;strokeColor=#666666;fontColor=#333333;" parent="1" vertex="1">
          <mxGeometry x="580" y="200" width="190" height="30" as="geometry" />
        </mxCell>
        <mxCell id="t8I1GnkwRlT8fT6AS5P3-33" value="Client 协商" style="text;html=1;align=center;verticalAlign=middle;resizable=0;points=[];autosize=1;strokeColor=none;fillColor=none;" parent="1" vertex="1">
          <mxGeometry x="250" y="610" width="70" height="20" as="geometry" />
        </mxCell>
        <mxCell id="t8I1GnkwRlT8fT6AS5P3-34" value="Server 要求" style="text;html=1;align=center;verticalAlign=middle;resizable=0;points=[];autosize=1;strokeColor=none;fillColor=none;" parent="1" vertex="1">
          <mxGeometry x="625" y="610" width="80" height="20" as="geometry" />
        </mxCell>
      </root>
    </mxGraphModel>
  </diagram>
</mxfile>
